<?xml version="1.0" standalone="no"?>
<!DOCTYPE svg PUBLIC "-//W3C//DTD SVG 1.1//EN"
  "http://www.w3.org/Graphics/SVG/1.1/DTD/svg11.dtd">
<svg width="2.3510665893554688mm" height="2.3829803466796875mm" viewBox="49.324466705322266 -64.19149017333983 2.3510665893554688 2.3829803466796875" xmlns="http://www.w3.org/2000/svg" version="1.1">
	<title>svgOutput</title>
	<desc>made with tinkercad</desc>
<path d="M 50.675533294677734 -62.999999999999986 L 50.67409133911133 -62.97600173950194 L 50.67403030395508 -62.975009918212876 L 50.669551849365234 -62.95043563842772 L 50.66217041015625 -62.926723480224595 L 50.65201187133789 -62.904254913330064 L 50.63925552368164 -62.88342666625975 L 50.62411880493164 -62.864597320556626 L 50.60686111450195 -62.848083496093736 L 50.587764739990234 -62.834171295166 L 50.567169189453125 -62.823085784912095 L 50.54543685913086 -62.81503295898436 L 50.52291488647461 -62.81015014648436 L 50.5 -62.80850982666014 L 50.47708511352539 -62.81015014648436 L 50.45456314086914 -62.81503295898436 L 50.432830810546875 -62.823085784912095 L 50.412235260009766 -62.834171295166 L 50.39313888549805 -62.848083496093736 L 50.37588119506836 -62.864597320556626 L 50.36074447631836 -62.88342666625975 L 50.34798812866211 -62.904254913330064 L 50.33782958984375 -62.926723480224595 L 50.330448150634766 -62.95043563842772 L 50.32596969604492 -62.975009918212876 L 50.32590866088867 -62.97600173950194 L 50.324466705322266 -62.999999999999986 L 50.32596969604492 -63.024990081787095 L 50.330448150634766 -63.04956436157225 L 50.33782958984375 -63.073276519775376 L 50.34798812866211 -63.09574508666991 L 50.36074447631836 -63.11657333374022 L 50.37588119506836 -63.135402679443345 L 50.39313888549805 -63.151916503906236 L 50.412235260009766 -63.16582870483397 L 50.432830810546875 -63.176914215087876 L 50.45456314086914 -63.18496704101561 L 50.47708511352539 -63.18984985351561 L 50.5 -63.19149017333983 L 50.52291488647461 -63.18984985351561 L 50.54543685913086 -63.18496704101561 L 50.567169189453125 -63.176914215087876 L 50.587764739990234 -63.16582870483397 L 50.60686111450195 -63.151916503906236 L 50.62411880493164 -63.135402679443345 L 50.63925552368164 -63.11657333374022 L 50.65201187133789 -63.09574508666991 L 50.66217041015625 -63.073276519775376 L 50.669551849365234 -63.04956436157225 L 50.67403030395508 -63.024990081787095 L 50.675533294677734 -62.999999999999986 z" fill="none" stroke="rgb(255,0,0)" stroke-width="0.001mm" />
</svg>